<?xml version="1.0" encoding="utf-8"?>
<!-- Generator: Adobe Illustrator 16.0.0, SVG Export Plug-In . SVG Version: 6.00 Build 0)  -->
<!DOCTYPE svg PUBLIC "-//W3C//DTD SVG 1.1//EN" "http://www.w3.org/Graphics/SVG/1.1/DTD/svg11.dtd">
<svg version="1.1" id="Layer_1" xmlns="http://www.w3.org/2000/svg" xmlns:xlink="http://www.w3.org/1999/xlink" x="0px" y="0px"
	 width="323.824px" height="326.616px" viewBox="0 0 323.824 326.616" enable-background="new 0 0 323.824 326.616"
	 xml:space="preserve">
<g>
	<defs>
		<path id="SVGID_1_" d="M222.001,164.287c-26.867,0.158-53.736-0.008-80.605-0.024c-45.253-0.028-90.505-0.042-135.758-0.104
			c-3.262-0.006-5.643-0.017-5.63,4.59c0.144,51.086,0.116,102.172,0.037,153.258c-0.005,3.391,0.995,4.631,4.514,4.623
			c38.003-0.1,76.006-0.092,114.01-0.01c3.311,0.006,4.848-0.906,4.836-4.447c-0.045-14.086-0.047-39.311-0.031-59.697
			c0.008-11.547-9.352-20.885-20.898-20.885c-11.537,0-20.891,9.365-20.898,20.9c-0.004,4.477-0.006,8.158-0.006,9.145
			c-0.006,4.334-0.002,8.666-0.002,12.963H42.202v-78.711c2.748,0,5.022,0,7.296,0c54.762,0.02,109.522,0.15,164.282-0.049
			c9.635-0.035,19.541-0.303,28.824-2.539c3.215-0.775,6.441-1.688,9.65-2.68c37.832-46.185,32.313-93.115,28.662-109.849
			C288.306,128.726,260.468,164.058,222.001,164.287"/>
	</defs>
	<clipPath id="SVGID_2_">
		<use xlink:href="#SVGID_1_"  overflow="visible"/>
	</clipPath>
	
		<linearGradient id="SVGID_3_" gradientUnits="userSpaceOnUse" x1="-200.1396" y1="473.4624" x2="-199.1396" y2="473.4624" gradientTransform="matrix(166.9365 -166.9365 -166.9365 -166.9365 112569.3281 45860.3867)">
		<stop  offset="0" style="stop-color:#EE1F41"/>
		<stop  offset="0.0379" style="stop-color:#EE1F41"/>
		<stop  offset="1" style="stop-color:#C2228F"/>
	</linearGradient>
	<polygon clip-path="url(#SVGID_2_)" fill="url(#SVGID_3_)" points="-117.938,208.703 145.042,-54.276 408.021,208.703 
		145.042,471.681 	"/>
</g>
<g>
	<defs>
		<path id="SVGID_4_" d="M229.757,43.101c22.555,1.816,42.99,20.4,49.707,41.965c-0.145-0.472-0.23-0.725-0.23-0.725
			s0.086,0.253,0.23,0.725c0.248,0.799,0.461,1.602,0.67,2.407c0.119,0.451,0.242,0.948,0.373,1.493
			c0.1,0.436,0.236,0.865,0.324,1.303c0.033,0.167,0.055,0.334,0.086,0.501c3.65,16.733,9.17,63.664-28.662,109.849
			c7.213-2.227,14.293-5.025,20.629-8.803c27.143-16.188,44.012-39.968,49.416-71.626c0.635-3.727,1.014-7.416,1.27-11.088
			c-23.756-65.346-96.24-66.208-96.348-66.209C228.065,42.963,228.913,43.033,229.757,43.101"/>
	</defs>
	<clipPath id="SVGID_5_">
		<use xlink:href="#SVGID_4_"  overflow="visible"/>
	</clipPath>
	
		<linearGradient id="SVGID_6_" gradientUnits="userSpaceOnUse" x1="-200.5669" y1="472.7358" x2="-199.5665" y2="472.7358" gradientTransform="matrix(0 -112.4908 -112.4908 0 53453.7461 -22403.1172)">
		<stop  offset="0" style="stop-color:#EE1F41"/>
		<stop  offset="0.0379" style="stop-color:#EE1F41"/>
		<stop  offset="1" style="stop-color:#C2228F"/>
	</linearGradient>
	<rect x="227.222" y="42.893" clip-path="url(#SVGID_5_)" fill="url(#SVGID_6_)" width="96.348" height="157.726"/>
</g>
<g>
	<defs>
		<path id="SVGID_7_" d="M74.973-0.11C51.789-0.04,28.608,0.031,5.426-0.002c-4.21-0.006-5.42,1.416-5.407,5.539
			c0.13,37.828,0.138,75.656-0.01,113.484c-0.017,4.088,1.378,5.042,5.188,5.037c71.416-0.087,142.831-0.072,214.245-0.044
			c5.529,0.002,11.012-1.884,14.988-5.726c6.672-6.444,8.186-14.627,4.674-23.652c-2.244-5.768-11.207-12.383-19.314-12.35
			c-56.74,0.235-113.485,0.119-170.228,0.117h-7.833c0-11.771,0.254-22.869-0.113-33.949c-0.168-5.049,1.225-6.529,6.41-6.512
			c54.974,0.192,109.95,0.09,164.926,0.162c4.756,0.008,9.516,0.395,14.27,0.788c0.107,0.001,72.592,0.863,96.348,66.209
			c1.188-17.095-1.736-33.584-9.383-49.22c-18.713-38.26-50.305-58.766-92.4-59.469c-29.785-0.5-59.58-0.64-89.373-0.64
			C113.266-0.226,94.119-0.168,74.973-0.11"/>
	</defs>
	<clipPath id="SVGID_8_">
		<use xlink:href="#SVGID_7_"  overflow="visible"/>
	</clipPath>
	
		<linearGradient id="SVGID_9_" gradientUnits="userSpaceOnUse" x1="-201.2075" y1="474.0181" x2="-200.2075" y2="474.0181" gradientTransform="matrix(-230.3661 0 0 230.3661 -46045.0586 -109135.9922)">
		<stop  offset="0" style="stop-color:#EE1F41"/>
		<stop  offset="0.0379" style="stop-color:#EE1F41"/>
		<stop  offset="1" style="stop-color:#C2228F"/>
	</linearGradient>
	<rect x="-0.007" y="-0.226" clip-path="url(#SVGID_8_)" fill="url(#SVGID_9_)" width="324.764" height="124.289"/>
</g>
</svg>
